<?xml version="1.0" encoding="utf-8"?>
<!-- Generator: Adobe Illustrator 21.0.0, SVG Export Plug-In . SVG Version: 6.00 Build 0)  -->
<svg version="1.1" id="Layer_1" xmlns="http://www.w3.org/2000/svg" xmlns:xlink="http://www.w3.org/1999/xlink" x="0px" y="0px"
	 viewBox="0 0 613.5 1161.6" style="enable-background:new 0 0 613.5 1161.6;" xml:space="preserve">
<style type="text/css">
	.st0{fill:#33CD5F;}
	.st1{font-family:'HelveticaNeue-Medium';}
	.st2{font-size:93.7561px;}
</style>
<title>chive-app</title>
<path class="st0" d="M468.9,702.8l-76.2,5.7c-25.9,1.9-52.3,3.9-79.2,5.8c-13.4,1-26.9,1.9-40.5,2.7s-27.3,1.8-41,2.5l-41.4,2.2
	c-13.9,0.7-27.8,1.3-41.7,1.9l-21.3,0.9l-1-23.2c-4.1-94.8-7.1-189.5-8.8-284.3c-1-47.4-1.6-94.8-2.1-142.1l-0.3-35.5l-0.2-35.5
	c-0.1-11.8-0.1-23.7-0.1-35.5l0-35.5L115,99.1l33.8,0.1c26.6,0.1,53.1,0.1,79.7,0.2l19.9,0.1l19.9,0.2l39.8,0.4l39.8,0.5l39.8,0.6
	c13.3,0.2,26.6,0.5,39.8,0.7c13.3,0.2,26.6,0.5,39.8,0.8l30.9,0.7l-0.6,29.6c-1.1,49.2-2.5,98.3-4.4,147.1
	c-1.9,48.8-4.2,97.3-6.8,145.1l-2,35.7l-1,17.8l-1.1,17.7l-2.1,35.2l-2.2,34.9c-0.7,11.6-1.5,23.1-2.3,34.6l-1.1,17.2l-1.2,17.1
	C472.1,658.1,470.6,680.7,468.9,702.8z M466.3,700.1l-1.4-284.1l-0.5-141.6l-0.2-70.8l-0.1-70.8l3.5,3.5l-318.8,0.2l3.8-3.8
	l-0.2,284.3l-0.2,142.1l-0.3,142.1l-3-3l79.2,0.2l79.3,0.5L466.3,700.1z"/>
<path class="st0" d="M289.6,448.6l-81.1-10c2.5-19.2,11.6-37,25.9-50.2L289.6,448.6z"/>
<path class="st0" d="M304.5,448.6l96.6-124.6c26.8,20.9,46.2,49.8,55.5,82.5L304.5,448.6z"/>
<path class="st0" d="M297.7,459.1l22.3,156c-15.9,2.2-32,2.1-47.8-0.5L297.7,459.1z"/>
<path class="st0" d="M302.5,458.8L437.7,540c-8.5,13.9-19,26.5-31.3,37.2c-1.6,1.4-3.2,2.7-4.8,4L302.5,458.8z"/>
<path class="st0" d="M297.6,448.8l-8.7-268.7c34.8-1.1,69.5,4.4,102.2,16.3L297.6,448.8z"/>
<path class="st0" d="M289.4,458.9l-106.3,89.9c-11.6-13.8-20.6-29.6-26.3-46.7L289.4,458.9z"/>
<text transform="matrix(1 0 0 1 289.6479 798.2394)" class="st0 st1 st2">chive</text>
</svg>
